<?xml version="1.0" encoding="utf-8"?>
<!-- Generator: Adobe Illustrator 23.0.1, SVG Export Plug-In . SVG Version: 6.00 Build 0)  -->
<svg version="1.1" id="Layer_1" xmlns="http://www.w3.org/2000/svg" xmlns:xlink="http://www.w3.org/1999/xlink" x="0px" y="0px"
	 viewBox="0 0 1366 768" style="enable-background:new 0 0 1366 768;" xml:space="preserve">
<style type="text/css">
	.st0{fill:#00A3DF;}
	.st1{fill:#273E47;}
</style>
<g>
	<polygon class="st0" points="737.4,384 737.4,399.7 737.4,415.4 737.4,431.1 751,423.3 751,407.6 751,391.9 751,376.1 	"/>
	<polyline class="st0" points="696.6,391.9 696.6,391.9 710.2,384 723.8,376.1 737.4,368.3 751,360.4 751,344.7 751,344.7 
		737.4,352.6 723.8,360.4 710.2,368.3 710.2,368.3 710.2,368.3 696.6,376.1 683,384 683,384 683,399.7 683,415.4 683,431.1 
		696.6,423.3 710.2,415.4 710.2,415.4 710.2,415.4 710.3,415.4 710.2,415.4 710.2,415.4 710.2,431.1 710.2,431.1 696.6,439 
		696.6,439 683,446.9 683,446.9 683,462.6 696.6,454.7 710.2,446.9 710.2,446.9 723.8,439 723.8,423.3 723.8,407.6 723.8,406.2 
		723.8,391.9 710.2,399.7 696.6,407.6 696.6,391.9 	"/>
	<g>
		<polygon class="st1" points="669.4,344.7 669.4,344.7 683,336.9 683,336.9 696.6,329 710.2,321.1 696.6,313.3 683,305.4 
			669.4,313.3 669.4,313.3 655.8,321.1 642.2,329 642.2,329 628.6,336.9 615,344.7 615,344.7 615,360.4 615,376.1 615,407.6 
			615,408.2 615,423.3 615,423.3 628.6,431.1 628.6,431.1 642.2,439 642.2,439 642.2,423.9 642.2,423.3 642.2,391.9 642.2,391.9 
			642.2,376.1 642.2,360.4 655.8,352.6 		"/>
		<polygon class="st1" points="723.8,329 710.2,336.9 696.6,344.7 683,352.6 669.4,360.4 655.8,368.3 655.8,368.3 655.8,384 
			655.8,399.7 655.8,431.1 655.8,431.8 655.8,446.9 655.8,446.9 669.4,454.7 669.4,454.7 669.4,439.6 669.4,439 669.4,407.6 
			669.4,406.2 669.4,391.9 669.4,376.1 669.4,376.1 669.4,376.1 683,368.3 696.6,360.4 696.6,360.4 696.6,360.4 710.2,352.6 
			723.8,344.7 723.8,344.7 723.8,344.7 737.4,336.9 737.4,336.9 		"/>
	</g>
</g>
</svg>
