<svg xmlns="http://www.w3.org/2000/svg" viewBox="0 0 530.4 104.8"><defs><style>.cls-1{fill:#00a3df;}.cls-2{fill:#273e47;}.cls-3{fill:#fff;}</style></defs><title>Asset 1</title><g id="Layer_2" data-name="Layer 2"><g id="Layer_1-2" data-name="Layer 1"><polygon class="cls-1" points="81.7 52.4 81.7 62.9 81.7 73.4 81.7 83.8 90.8 78.6 90.8 68.1 90.8 57.6 90.8 47.2 81.7 52.4"/><polyline class="cls-1" points="54.5 57.6 54.5 57.6 63.5 52.4 72.6 47.2 81.7 41.9 90.8 36.7 90.8 26.2 90.8 26.2 81.7 31.4 72.6 36.7 63.5 41.9 63.5 41.9 63.5 41.9 54.5 47.2 45.4 52.4 45.4 52.4 45.4 62.9 45.4 73.4 45.4 83.8 54.5 78.6 63.5 73.4 63.5 73.4 63.5 73.3 63.6 73.3 63.5 73.4 63.5 73.4 63.5 83.8 63.5 83.8 54.5 89.1 54.5 89.1 45.4 94.3 45.4 94.3 45.4 104.8 54.5 99.5 63.5 94.3 63.5 94.3 72.6 89.1 72.6 78.6 72.6 68.1 72.6 67.2 72.6 57.6 63.5 62.9 54.5 68.1 54.5 57.6"/><polygon class="cls-2" points="36.3 26.2 36.3 26.2 45.4 21 45.4 21 54.5 15.7 63.5 10.5 54.5 5.3 45.4 0 36.3 5.3 36.3 5.3 27.3 10.5 18.2 15.7 18.2 15.7 9.1 21 0 26.2 0 26.2 0 36.7 0 47.2 0 68.1 0 68.5 0 78.6 0 78.6 9.1 83.8 9.1 83.8 18.2 89.1 18.2 89.1 18.2 79 18.2 78.6 18.2 57.6 18.2 57.6 18.2 47.2 18.2 36.7 27.3 31.5 36.3 26.2"/><polygon class="cls-2" points="72.6 15.7 63.5 21 54.5 26.2 45.4 31.4 36.3 36.7 27.3 41.9 27.3 41.9 27.3 52.4 27.3 62.9 27.3 83.8 27.3 84.2 27.3 94.3 27.3 94.3 36.3 99.5 36.3 99.5 36.3 89.5 36.3 89.1 36.3 68.1 36.3 67.2 36.3 57.6 36.3 47.2 36.3 47.2 36.3 47.2 45.4 41.9 54.5 36.7 54.5 36.7 54.5 36.7 63.5 31.5 72.6 26.2 72.6 26.2 72.6 26.2 81.7 21 81.7 21 72.6 15.7"/><path class="cls-2" d="M142.8,61.8c0,7.7-7.2,12.6-16.6,12.6s-16.5-5.5-17.3-15.1h8.9c.7,4.6,3.7,6.9,8.7,6.9,4.7,0,7.8-1.7,7.8-4.4,0-8.1-24.6-2.4-24.6-18.4,0-8.3,7-12.9,15.7-12.9,9.2,0,15.6,5.1,16,13.9h-8.9c-.7-4.1-3.4-5.7-7.2-5.7-4.6,0-7.1,1.8-7.1,4.1C118.1,50.7,142.8,45.6,142.8,61.8Z"/><path class="cls-2" d="M160.9,73.8l-8.3-20.5V73.8h-8.2V31h8.2L165,61.6,177.4,31h8.2V73.8h-8.2V53.3l-8.3,20.5Z"/><path class="cls-2" d="M199.3,64.9,196,73.8h-8.8L202.8,31H211l15.6,42.8h-8.8l-3.3-8.9Zm12.4-7.5-4.8-13.3-4.8,13.3Z"/><path class="cls-2" d="M250.8,73.8l-9-15.6h-5V73.8h-8.2V31H244c10.3,0,16.7,5.6,16.7,13.6,0,6.2-3.8,10.7-10,12.6l9.6,16.6ZM236.7,50.7h6.9c5.6,0,8.6-2.4,8.6-6.1s-2.9-6.1-8.6-6.1h-6.9Z"/><path class="cls-2" d="M292.6,38.4H280.8V73.8h-8.2V38.4H260.8V30.9h31.8Z"/><path class="cls-1" d="M325.8,38.4H314V73.8h-8.2V38.4H294V30.9h31.8Z"/><path class="cls-1" d="M354,56.1H336V66.3h20.7v7.5H327.8V31H356v7.5H335.9V48.7h18v7.4Z"/><path class="cls-1" d="M384.3,73.8,366.9,46.4V73.8h-8.2V31h8.2l17.4,27.5V31h8.2V73.8Z"/><path class="cls-1" d="M394.9,73.8V31H409c13.3,0,21.6,8.9,21.6,21.4S422.3,73.8,409,73.8Z"/><path class="cls-1" d="M458.9,56.1h-18V66.3h20.7v7.5H432.7V31h28.2v7.5H440.8V48.7h18v7.4Z"/><path class="cls-1" d="M485.9,73.8l-9-15.6h-5V73.8h-8.2V31h15.4c10.3,0,16.7,5.6,16.7,13.6,0,6.2-3.8,10.7-10,12.6l9.6,16.6ZM471.8,50.7h6.9c5.6,0,8.6-2.4,8.6-6.1s-2.9-6.1-8.6-6.1h-6.9Z"/><path class="cls-1" d="M530.4,61.8c0,7.7-7.2,12.6-16.6,12.6s-16.5-5.5-17.3-15.1h8.9c.7,4.6,3.7,6.9,8.7,6.9,4.7,0,7.8-1.7,7.8-4.4,0-8.1-24.6-2.4-24.6-18.4,0-8.3,7-12.9,15.7-12.9,9.2,0,15.6,5.1,16,13.9h-8.9c-.7-4.1-3.4-5.7-7.2-5.7-4.6,0-7.1,1.8-7.1,4.1C505.7,50.7,530.4,45.6,530.4,61.8Z"/><polygon class="cls-3" points="403.1 66 403.1 38.8 426.6 52.4 403.1 66"/></g></g></svg>