<?xml version="1.0" encoding="utf-8"?>
<!-- Generator: Adobe Illustrator 23.0.1, SVG Export Plug-In . SVG Version: 6.00 Build 0)  -->
<svg version="1.1" id="Layer_1" xmlns="http://www.w3.org/2000/svg" xmlns:xlink="http://www.w3.org/1999/xlink" x="0px" y="0px"
	 viewBox="0 0 1366 768" style="enable-background:new 0 0 1366 768;" xml:space="preserve">
<style type="text/css">
	.st0{fill:#00A3DF;}
	.st1{fill:#273E47;}
	.st2{fill:#FFFFFF;}
</style>
<g>
	<g>
		<polygon class="st0" points="719.3,353.2 719.3,363.7 719.3,374.2 719.3,384.7 728.4,379.4 728.4,369 728.4,358.5 728.4,348 		"/>
		<polyline class="st0" points="692.1,358.5 692.1,358.5 701.1,353.2 710.2,348 719.3,342.8 728.4,337.5 728.4,327.1 728.4,327.1 
			719.3,332.3 710.2,337.5 701.1,342.8 701.1,342.8 701.1,342.8 692.1,348 683,353.2 683,353.2 683,363.7 683,374.2 683,384.7 
			692.1,379.4 701.1,374.2 701.1,374.2 701.1,374.2 701.2,374.2 701.1,374.2 701.1,374.2 701.1,384.7 701.1,384.7 692.1,389.9 
			692.1,389.9 683,395.2 683,395.2 683,405.6 692.1,400.4 701.1,395.2 701.1,395.2 710.2,389.9 710.2,379.4 710.2,369 710.2,368.1 
			710.2,358.5 701.1,363.7 692.1,369 692.1,358.5 		"/>
		<g>
			<polygon class="st1" points="673.9,327.1 673.9,327.1 683,321.8 683,321.8 692.1,316.6 701.1,311.3 692.1,306.1 683,300.9 
				673.9,306.1 673.9,306.1 664.9,311.3 655.8,316.6 655.8,316.6 646.7,321.8 637.6,327.1 637.6,327.1 637.6,337.5 637.6,348 
				637.6,369 637.6,369.4 637.6,379.4 637.6,379.4 646.7,384.7 646.7,384.7 655.8,389.9 655.8,389.9 655.8,379.9 655.8,379.4 
				655.8,358.5 655.8,358.5 655.8,348 655.8,337.5 664.9,332.3 			"/>
			<polygon class="st1" points="710.2,316.6 701.1,321.8 692.1,327.1 683,332.3 673.9,337.5 664.9,342.8 664.9,342.8 664.9,353.2 
				664.9,363.7 664.9,384.7 664.9,385.1 664.9,395.2 664.9,395.2 673.9,400.4 673.9,400.4 673.9,390.3 673.9,389.9 673.9,369 
				673.9,368.1 673.9,358.5 673.9,348 673.9,348 673.9,348 683,342.8 692.1,337.5 692.1,337.5 692.1,337.5 701.1,332.3 710.2,327.1 
				710.2,327.1 710.2,327.1 719.3,321.8 719.3,321.8 			"/>
		</g>
	</g>
	<g>
		<path class="st1" d="M506.1,454.5c0,7.7-7.2,12.6-16.6,12.6c-9.5,0-16.5-5.5-17.3-15.1h8.9c0.7,4.6,3.7,6.9,8.7,6.9
			c4.7,0,7.8-1.7,7.8-4.4c0-8.1-24.6-2.4-24.6-18.4c0-8.3,7-12.9,15.7-12.9c9.2,0,15.6,5.1,16,13.9h-8.9c-0.7-4.1-3.4-5.7-7.2-5.7
			c-4.6,0-7.1,1.8-7.1,4.1C481.5,443.5,506.1,438.4,506.1,454.5z"/>
		<path class="st1" d="M524.3,466.6l-8.3-20.5v20.5h-8.2v-42.8h8.2l12.4,30.6l12.4-30.6h8.2v42.8h-8.2v-20.5l-8.3,20.5H524.3z"/>
		<path class="st1" d="M562.7,457.7l-3.3,8.9h-8.8l15.6-42.8h8.2l15.6,42.8h-8.8l-3.3-8.9H562.7z M575.1,450.2l-4.8-13.3l-4.8,13.3
			H575.1z"/>
		<path class="st1" d="M614.2,466.6l-9-15.6h-5v15.6h-8.2v-42.8h15.4c10.3,0,16.7,5.6,16.7,13.6c0,6.2-3.8,10.7-10,12.6l9.6,16.6
			H614.2z M600.1,443.5h6.9c5.6,0,8.6-2.4,8.6-6.1c0-3.7-2.9-6.1-8.6-6.1h-6.9V443.5z"/>
		<path class="st1" d="M655.9,431.2h-11.8v35.4h-8.2v-35.4h-11.8v-7.5h31.8V431.2z"/>
		<path class="st0" d="M689.1,431.2h-11.8v35.4h-8.2v-35.4h-11.8v-7.5h31.8V431.2z"/>
		<path class="st0" d="M717.3,448.9h-18v10.2h20.7v7.5h-28.9v-42.8h28.2v7.5h-20.1v10.2h18V448.9z"/>
		<path class="st0" d="M747.7,466.6l-17.4-27.4v27.4h-8.2v-42.8h8.2l17.4,27.5v-27.5h8.2v42.8H747.7z"/>
		<path class="st0" d="M758.3,466.6v-42.8h14.1c13.3,0,21.6,8.9,21.6,21.4c0,12.5-8.3,21.4-21.6,21.4H758.3z"/>
		<path class="st0" d="M822.3,448.9h-18v10.2H825v7.5h-28.9v-42.8h28.2v7.5h-20.1v10.2h18V448.9z"/>
		<path class="st0" d="M849.3,466.6l-9-15.6h-5v15.6H827v-42.8h15.4c10.3,0,16.7,5.6,16.7,13.6c0,6.2-3.8,10.7-10,12.6l9.6,16.6
			H849.3z M835.2,443.5h6.9c5.6,0,8.6-2.4,8.6-6.1c0-3.7-2.9-6.1-8.6-6.1h-6.9V443.5z"/>
		<path class="st0" d="M893.7,454.5c0,7.7-7.2,12.6-16.6,12.6c-9.5,0-16.5-5.5-17.3-15.1h8.9c0.7,4.6,3.7,6.9,8.7,6.9
			c4.7,0,7.8-1.7,7.8-4.4c0-8.1-24.6-2.4-24.6-18.4c0-8.3,7-12.9,15.7-12.9c9.2,0,15.6,5.1,16,13.9h-8.9c-0.7-4.1-3.4-5.7-7.2-5.7
			c-4.6,0-7.1,1.8-7.1,4.1C869.1,443.5,893.7,438.4,893.7,454.5z"/>
		<polygon class="st2" points="766.4,458.8 766.4,431.6 790,445.2 		"/>
	</g>
</g>
</svg>
