<?xml version="1.0" encoding="utf-8"?>
<!-- Generator: Adobe Illustrator 23.0.1, SVG Export Plug-In . SVG Version: 6.00 Build 0)  -->
<svg version="1.1" id="Layer_1" xmlns="http://www.w3.org/2000/svg" xmlns:xlink="http://www.w3.org/1999/xlink" x="0px" y="0px"
	 viewBox="0 0 1366 768" style="enable-background:new 0 0 1366 768;" xml:space="preserve">
<style type="text/css">
	.st0{fill:#273E47;}
	.st1{fill:#00A3DF;}
	.st2{fill:#FFFFFF;}
</style>
<g>
	<path class="st0" d="M506.1,393.4c0,7.7-7.2,12.6-16.6,12.6c-9.5,0-16.5-5.5-17.3-15.1h8.9c0.7,4.6,3.7,6.9,8.7,6.9
		c4.7,0,7.8-1.7,7.8-4.4c0-8.1-24.6-2.4-24.6-18.4c0-8.3,7-12.9,15.7-12.9c9.2,0,15.6,5.1,16,13.9h-8.9c-0.7-4.1-3.4-5.7-7.2-5.7
		c-4.6,0-7.1,1.8-7.1,4.1C481.5,382.4,506.1,377.3,506.1,393.4z"/>
	<path class="st0" d="M524.3,405.4L516,385v20.5h-8.2v-42.8h8.2l12.4,30.6l12.4-30.6h8.2v42.8h-8.2V385l-8.3,20.5H524.3z"/>
	<path class="st0" d="M562.7,396.5l-3.3,8.9h-8.8l15.6-42.8h8.2l15.6,42.8h-8.8l-3.3-8.9H562.7z M575.1,389l-4.8-13.3l-4.8,13.3
		H575.1z"/>
	<path class="st0" d="M614.2,405.4l-9-15.6h-5v15.6h-8.2v-42.8h15.4c10.3,0,16.7,5.6,16.7,13.6c0,6.2-3.8,10.7-10,12.6l9.6,16.6
		H614.2z M600.1,382.3h6.9c5.6,0,8.6-2.4,8.6-6.1c0-3.7-2.9-6.1-8.6-6.1h-6.9V382.3z"/>
	<path class="st0" d="M655.9,370.1h-11.8v35.4h-8.2v-35.4h-11.8v-7.5h31.8V370.1z"/>
	<path class="st1" d="M689.1,370.1h-11.8v35.4h-8.2v-35.4h-11.8v-7.5h31.8V370.1z"/>
	<path class="st1" d="M717.3,387.7h-18v10.2h20.7v7.5h-28.9v-42.8h28.2v7.5h-20.1v10.2h18V387.7z"/>
	<path class="st1" d="M747.7,405.4L730.3,378v27.4h-8.2v-42.8h8.2l17.4,27.5v-27.5h8.2v42.8H747.7z"/>
	<path class="st1" d="M758.3,405.4v-42.8h14.1c13.3,0,21.6,8.9,21.6,21.4c0,12.5-8.3,21.4-21.6,21.4H758.3z"/>
	<path class="st1" d="M822.3,387.7h-18v10.2H825v7.5h-28.9v-42.8h28.2v7.5h-20.1v10.2h18V387.7z"/>
	<path class="st1" d="M849.3,405.4l-9-15.6h-5v15.6H827v-42.8h15.4c10.3,0,16.7,5.6,16.7,13.6c0,6.2-3.8,10.7-10,12.6l9.6,16.6
		H849.3z M835.2,382.3h6.9c5.6,0,8.6-2.4,8.6-6.1c0-3.7-2.9-6.1-8.6-6.1h-6.9V382.3z"/>
	<path class="st1" d="M893.7,393.4c0,7.7-7.2,12.6-16.6,12.6c-9.5,0-16.5-5.5-17.3-15.1h8.9c0.7,4.6,3.7,6.9,8.7,6.9
		c4.7,0,7.8-1.7,7.8-4.4c0-8.1-24.6-2.4-24.6-18.4c0-8.3,7-12.9,15.7-12.9c9.2,0,15.6,5.1,16,13.9h-8.9c-0.7-4.1-3.4-5.7-7.2-5.7
		c-4.6,0-7.1,1.8-7.1,4.1C869.1,382.4,893.7,377.3,893.7,393.4z"/>
	<polygon class="st2" points="766.4,397.6 766.4,370.4 790,384 	"/>
</g>
</svg>
